<svg width="96" height="30" viewBox="0 0 96 30" fill="none" xmlns="http://www.w3.org/2000/svg">
<path d="M20.408 16.9571C20.408 20.6213 22.1859 22.4826 25.7036 22.4826C29.2213 22.4826 30.9829 20.6213 30.9829 16.9571C30.9829 13.2928 29.2104 11.4177 25.7036 11.4177C22.1968 11.4177 20.408 13.2762 20.408 16.9571ZM22.9836 16.9571C22.9836 14.543 23.7433 13.5651 25.6818 13.5651C27.6204 13.5651 28.4045 14.5096 28.4045 16.9571C28.4045 19.4045 27.6421 20.3518 25.6818 20.3518C23.7215 20.3518 22.9836 19.4129 22.9836 16.9571Z" fill="white"/>
<path d="M52.3745 16.9571C52.3745 20.6213 54.1633 22.4826 57.6756 22.4826C61.1879 22.4826 62.9522 20.6213 62.9522 16.9571C62.9522 13.2928 61.177 11.4177 57.6756 11.4177C54.1742 11.4177 52.3745 13.2762 52.3745 16.9571ZM54.9611 16.9571C54.9611 14.543 55.7153 13.5651 57.6538 13.5651C59.5924 13.5651 60.3711 14.5096 60.3711 16.9571C60.3711 19.4045 59.6087 20.3518 57.6538 20.3518C55.6989 20.3518 54.9611 19.4129 54.9611 16.9571Z" fill="white"/>
<path d="M81.8922 9.13142V19.1657C81.8922 21.2103 83.0956 22.2938 85.3773 22.2938H87.6017C88.1735 22.2938 88.4294 21.7743 88.4294 21.2742C88.4294 20.7742 88.1735 20.2519 87.6017 20.2519H86.3111C85.1322 20.2519 84.5169 20.1769 84.5169 18.7518V13.8957H87.422C87.9938 13.8957 88.2497 13.3735 88.2497 12.8679C88.2497 12.3623 87.9938 11.8483 87.422 11.8483L84.5169 11.8539V9.12864C84.5169 8.43691 84.035 8.0202 83.2481 8.0202C82.6165 8.0202 81.8949 8.3119 81.8949 9.12864" fill="white"/>
<path d="M32.941 9.13142V19.1657C32.941 21.2103 34.1472 22.2938 36.4397 22.2938H38.6641C39.2305 22.2938 39.4837 21.7743 39.4837 21.2742C39.4837 20.7742 39.2305 20.2519 38.6641 20.2519H37.3654C36.1865 20.2519 35.5712 20.1769 35.5712 18.7518V13.8957H38.4736C39.0453 13.8957 39.3012 13.3735 39.3012 12.8679C39.3012 12.3623 39.0453 11.8483 38.4736 11.8483H35.5712V9.12864C35.5712 8.43691 35.0974 8.0202 34.2997 8.0202C33.6734 8.0202 32.9438 8.3119 32.9438 9.12864" fill="white"/>
<path d="M74.1568 11.6428C71.1428 11.6428 69.855 12.8651 69.855 15.732V21.1659C69.855 21.8493 70.3451 22.2493 71.17 22.2493C71.995 22.2493 72.4824 21.8465 72.4824 21.1714V15.9237C72.4824 14.3902 72.7438 13.9124 74.3746 13.9124H75.137C76.7679 13.9124 77.0374 14.3902 77.0374 15.9237V21.1686C77.0266 21.852 77.5248 22.2521 78.3443 22.2521C79.1639 22.2521 79.6567 21.8493 79.6567 21.1742V15.7348C79.6567 12.8679 78.3688 11.6455 75.3521 11.6455H74.1514L74.1568 11.6428Z" fill="white"/>
<path d="M64.9077 12.7983V21.113C64.9077 21.9659 65.5938 22.2742 66.2364 22.2742C66.8789 22.2742 67.5569 21.9659 67.5569 21.113V12.7983C67.5569 11.9427 66.8789 11.6343 66.2282 11.6343C65.5775 11.6343 64.9077 11.9427 64.9077 12.7983Z" fill="white"/>
<path d="M64.7456 8.73132C64.7456 9.57862 65.4181 10.262 66.2295 10.262C67.0408 10.262 67.7215 9.57862 67.7215 8.73132C67.7215 7.88402 67.0599 7.19507 66.2295 7.19507C65.3991 7.19507 64.7456 7.8868 64.7456 8.73132Z" fill="white"/>
<path d="M42.5138 11.9565C41.4955 12.1871 40.9292 12.8399 40.9292 13.9817V25.4883C40.9292 26.3023 41.6017 26.5968 42.2388 26.5968C42.8759 26.5968 43.5512 26.3023 43.5512 25.4883V22.1436C44.1719 22.2825 44.7246 22.3464 45.4516 22.3464C47.0553 22.3464 47.8884 22.0686 48.8005 21.513C50.1482 20.6907 50.946 19.1461 50.946 17.082C50.946 13.4844 49.1463 11.6565 45.5768 11.6565C44.6103 11.6565 43.4177 11.7454 42.5111 11.9537M43.5484 20.0712V14.0234C44.0848 13.9067 44.7573 13.8484 45.3999 13.8484C47.4773 13.8484 48.3131 14.6401 48.3131 16.8709C48.3131 19.3794 47.6134 20.2462 45.359 20.2462C44.7437 20.2462 44.0167 20.1851 43.5512 20.0684" fill="white"/>
<path d="M15.8324 8.81467V13.6873H10.1992V8.81467C10.1992 8.12572 9.72543 7.71735 8.92768 7.71735C8.30418 7.71735 7.57178 8.00348 7.57178 8.81467V21.1547C7.57178 21.8437 8.05097 22.2576 8.85144 22.2576C9.48038 22.2576 10.1992 21.9687 10.1992 21.1547V16.1348H15.8324V21.1547C15.8324 21.8437 16.3116 22.2576 17.1094 22.2576C17.7301 22.2576 18.4625 21.9687 18.4625 21.1547V8.81467C18.4625 8.12572 17.9806 7.71735 17.1802 7.71735C16.5621 7.71735 15.8324 8.00348 15.8324 8.81467Z" fill="white"/>
</svg>
