<svg width="54" height="30" viewBox="0 0 54 30" fill="none" xmlns="http://www.w3.org/2000/svg">
<path d="M32.0863 0.00101856V9.45119L35.6539 4.04993H40.9128L35.717 10.25L41.4887 17.0718H36.2421L32.0863 11.0182V17.0718H28.0374V0H32.0863V0.00101856ZM23.5113 9.08181C23.5113 8.09782 23.0859 6.44631 21.2197 6.44631C19.5224 6.44631 18.8233 7.98894 18.7165 9.08181H23.5103H23.5113ZM21.4558 3.75483C25.6634 3.75483 27.261 7.03039 27.261 10.2541C27.261 10.7893 27.2173 11.3235 27.1287 11.8516H18.7409C18.8732 13.5306 20.5247 14.3203 22.4154 14.3203C23.6344 14.3345 24.8484 14.1554 26.0104 13.7881L26.5426 16.5314C25.2106 17.0636 23.5856 17.3292 21.8303 17.3292C17.4089 17.3292 14.8864 14.7741 14.8864 10.6936C14.8864 7.39163 16.9368 3.74975 21.465 3.74975M7.51813 14.4617C9.09027 14.4617 10.1028 12.8896 10.1028 10.5451C10.1028 8.60254 9.35586 6.63456 7.51813 6.63456C5.6804 6.63456 4.96911 8.34713 4.86837 10.1238V10.9908C4.98437 12.9964 5.90426 14.4648 7.51813 14.4648M7.61785 3.75382C11.6128 3.75382 14.2768 6.49719 14.2768 10.4118C14.2768 15.1801 10.8944 17.3638 7.40518 17.3638C3.71242 17.3638 0.828621 14.9949 0.67395 11.002V0H4.86837V4.21071C5.75366 3.89831 6.68576 3.74161 7.62396 3.74771M46.5613 14.4617C48.1324 14.4617 49.1439 12.8896 49.1439 10.5451C49.1439 8.60254 48.397 6.63151 46.5613 6.63151C44.6167 6.63151 43.8983 8.62798 43.8983 10.5451C43.8983 12.7827 44.8243 14.4617 46.5613 14.4617ZM46.6681 3.75382C50.6631 3.75382 53.3261 6.49719 53.3261 10.4118C53.3261 15.1801 49.9416 17.3638 46.4544 17.3638C42.6457 17.3638 39.7141 14.8596 39.7141 10.6468C39.7141 6.4341 42.4829 3.74771 46.6579 3.74771M0.67395 25.9124V30L51.8364 22.8088V18.7213L0.67395 25.9124Z" fill="white"/>
</svg>
