<svg width="96" height="26" viewBox="0 0 96 26" fill="none" xmlns="http://www.w3.org/2000/svg">
<path d="M11.4849 7.57001V19.5268C11.4849 20.3758 12.0136 20.9772 12.8242 20.9772C13.6349 20.9772 14.1636 20.3758 14.1636 19.5268V7.57001C14.1636 6.721 13.5644 6.11963 12.8242 6.11963C12.084 6.11963 11.4849 6.721 11.4849 7.57001Z" fill="white"/>
<path d="M17.4767 3.36036C17.4767 3.89099 17.7939 4.28011 18.3226 4.63387C21.248 6.5795 22.9045 9.69252 22.9045 13.1239C22.9045 16.5553 21.8472 18.6071 19.9086 20.5527C18.0406 22.4276 15.5029 23.5242 12.8242 23.5242C10.1455 23.5242 7.57257 22.4276 5.70453 20.5527C3.80125 18.6071 2.70863 16.0247 2.70863 13.1239C2.70863 10.2232 4.36519 6.54413 7.32585 4.63387C7.81929 4.28011 8.17175 3.92636 8.17175 3.36036C8.17175 2.5821 7.50208 2.1576 6.93814 2.1576C6.37421 2.1576 6.47994 2.1576 6.02175 2.4406C2.28568 4.88149 0.0651855 8.77277 0.0651855 13.0532C0.0651855 17.3336 1.40453 19.8806 3.76601 22.1446C6.12748 24.444 9.33486 25.7175 12.789 25.7175C16.2431 25.7175 19.4857 24.444 21.8119 22.1446C24.1734 19.7391 25.4775 16.5199 25.4775 13.0532C25.4775 9.5864 23.257 4.84612 19.5914 2.4406C19.1332 2.1576 18.9218 2.1576 18.675 2.1576C17.9701 2.1576 17.4414 2.65285 17.4414 3.36036" fill="white"/>
<path d="M11.0972 1.98073C11.0972 2.93586 11.8373 3.71411 12.789 3.71411C13.7406 3.71411 14.4808 2.93586 14.4808 1.98073C14.4808 1.02559 13.7054 0.282715 12.789 0.282715C11.8726 0.282715 11.0972 1.06097 11.0972 1.98073Z" fill="white"/>
<path d="M31.6171 7.74688C31.4409 7.74688 31.3704 7.81764 31.3704 7.99451V19.2792C31.3704 19.4561 31.4409 19.5976 31.6171 19.5976H33.5204C33.6967 19.5976 33.7319 19.4915 33.7319 19.2792V7.99451C33.7319 7.81764 33.5909 7.74688 33.5204 7.74688H31.6171Z" fill="white"/>
<path d="M36.5868 7.74688C36.4106 7.74688 36.3049 7.85301 36.3049 7.99451V19.35C36.3049 19.4561 36.4458 19.5976 36.5868 19.5976H38.4549C38.6311 19.5976 38.7368 19.5268 38.7368 19.35V10.0463C38.7368 9.99911 38.7603 9.97552 38.8073 9.97552H41.345C43.3893 9.97552 44.1295 10.683 44.1295 12.7348V19.3146C44.1295 19.4915 44.1999 19.5622 44.3762 19.5622H46.2442C46.4204 19.5622 46.4909 19.4915 46.4909 19.3146V12.2042C46.4909 9.30339 44.6934 7.74688 41.4508 7.74688H36.5516H36.5868Z" fill="white"/>
<path d="M51.3549 17.1567C51.3549 17.2274 51.3901 17.2628 51.4254 17.2628H53.0114C55.2319 17.2628 56.4655 15.9539 56.4655 13.6545C56.4655 11.3552 55.2319 10.0463 53.0467 10.0463H51.4254C51.3901 10.0463 51.3549 10.117 51.3549 10.1524V17.1567ZM49.2049 7.74688H52.518C56.6418 7.74688 59.0032 9.90477 59.0032 13.6545C59.0032 17.4043 58.1221 19.5622 52.2713 19.5622H49.2049C49.0286 19.5622 48.9581 19.4561 48.9581 19.3146V7.99451C48.9581 7.88839 49.0286 7.74688 49.2049 7.74688Z" fill="white"/>
<path d="M65.7705 9.62177C66.5106 9.62177 67.1803 9.8694 67.6737 10.3293C68.1672 10.8599 68.4491 11.6735 68.4491 12.4872V12.5579H63.0213C63.0918 10.7538 64.1844 9.5864 65.7352 9.5864M60.5541 13.6899C60.5541 15.7417 61.1532 17.2982 62.3164 18.3241C63.409 19.2792 64.8893 19.8452 66.8631 19.8452C68.8368 19.8452 69.2951 19.5976 70.0352 19.3146C70.2114 19.2438 70.2819 19.2085 70.2819 18.9962V17.2982C70.2467 17.1921 70.2467 17.0506 70.1057 16.9798C70.0705 16.9091 69.9647 16.9091 69.8942 16.9798C68.9073 17.4043 67.9205 17.5812 67.0041 17.5812C64.6426 17.5812 63.1623 16.4846 63.0918 14.6097H70.2114C70.4229 14.6097 70.5991 14.5389 70.6344 14.5036C70.7754 14.3267 70.8106 14.079 70.8106 13.1593C70.8106 9.65715 68.8368 7.35776 65.8057 7.35776C62.7745 7.35776 60.5541 9.90477 60.5541 13.6192" fill="white"/>
<path d="M72.4672 11.2137C72.4672 13.0885 73.4188 14.1852 75.7451 14.7158L77.1196 15.0696C78.318 15.3172 78.7057 15.6709 78.7057 16.3431C78.7057 17.0152 77.8246 17.7227 76.2737 17.7227C74.7229 17.7227 73.3483 17.2982 72.7844 17.0506C72.7139 16.9798 72.6082 16.9798 72.5729 17.0506C72.5024 17.1213 72.5024 17.1567 72.5024 17.2274V18.9608C72.4672 19.2085 72.5024 19.2792 72.7844 19.3853C73.4541 19.5622 74.8992 19.8806 75.9918 19.8806C80.5033 19.8806 81.1377 17.5458 81.1377 16.1308C81.1377 14.7158 80.1508 13.3715 77.8951 12.8055L76.7672 12.4872C75.2164 12.1334 74.8991 11.6382 74.8991 10.9307C74.8991 10.2232 75.4278 9.55102 76.9434 9.55102C78.459 9.55102 79.3049 9.79865 80.186 9.97552C80.2565 10.0463 80.3975 10.0463 80.468 9.97552C80.5033 9.90477 80.5033 9.8694 80.5033 9.79865V8.17139C80.5385 7.92376 80.3623 7.85301 80.2213 7.81764C79.4811 7.64076 78.1065 7.46388 76.9434 7.46388C74.1942 7.46388 72.4319 8.91427 72.4319 11.2137" fill="white"/>
<path d="M83.4639 7.74688C83.2877 7.74688 83.2172 7.81764 83.2172 7.99451V19.2792C83.2172 19.4561 83.2877 19.5976 83.4639 19.5976H85.3672C85.5434 19.5976 85.6139 19.4915 85.6139 19.2792V7.99451C85.6139 7.81764 85.4729 7.74688 85.3672 7.74688H83.4639Z" fill="white"/>
<path d="M87.7225 7.74688C87.5815 7.74688 87.511 7.81764 87.511 7.99451V9.7279C87.511 9.83402 87.5815 9.97552 87.7225 9.97552H90.4364C90.4716 9.97552 90.5069 10.0463 90.5069 10.0463V19.3146C90.5069 19.4915 90.6479 19.5622 90.7184 19.5622H92.7274C92.8683 19.5622 92.9389 19.4915 92.9389 19.3146V10.0463C92.9389 9.97552 92.9741 9.97552 93.0093 9.97552H95.7233C95.8643 9.97552 95.9347 9.8694 95.9347 9.7279V7.99451C95.9347 7.81764 95.8643 7.74688 95.7233 7.74688H87.7225Z" fill="white"/>
</svg>
