<svg width="60" height="61" viewBox="0 0 60 61" fill="none" xmlns="http://www.w3.org/2000/svg">
    <path d="M22 19.9C22.3666 19.9 22.6916 19.7583 22.975 19.475C23.2583 19.1916 23.4 18.8666 23.4 18.5C23.4 18.1333 23.2583 17.8083 22.975 17.525C22.6916 17.2416 22.3666 17.1 22 17.1C21.6333 17.1 21.3083 17.2416 21.025 17.525C20.7416 17.8083 20.6 18.1333 20.6 18.5C20.6 18.8666 20.7416 19.1916 21.025 19.475C21.3083 19.7583 21.6333 19.9 22 19.9ZM28 19.9C28.3666 19.9 28.6916 19.7583 28.975 19.475C29.2583 19.1916 29.4 18.8666 29.4 18.5C29.4 18.1333 29.2583 17.8083 28.975 17.525C28.6916 17.2416 28.3666 17.1 28 17.1C27.6333 17.1 27.3083 17.2416 27.025 17.525C26.7416 17.8083 26.6 18.1333 26.6 18.5C26.6 18.8666 26.7416 19.1916 27.025 19.475C27.3083 19.7583 27.6333 19.9 28 19.9ZM30 41.2C31.7333 41.2 33.2166 40.6083 34.45 39.425C35.6833 38.2416 36.3 36.8 36.3 35.1C36.3 34.3 36.1666 33.525 35.9 32.775C35.6333 32.025 35.2166 31.3666 34.65 30.8L30 26.15L25.5 30.65C24.9 31.25 24.4416 31.9333 24.125 32.7C23.8083 33.4666 23.6666 34.2666 23.7 35.1C23.7666 36.8 24.4083 38.2416 25.625 39.425C26.8416 40.6083 28.3 41.2 30 41.2ZM30 39.95C28.6333 39.95 27.475 39.4833 26.525 38.55C25.575 37.6166 25.1 36.4666 25.1 35.1C25.1 34.4666 25.2 33.8666 25.4 33.3C25.6 32.7333 25.9333 32.2166 26.4 31.75L30 28.15L33.8 31.95C34.2 32.35 34.4833 32.8333 34.65 33.4C34.8166 33.9666 34.9 34.5333 34.9 35.1C34.9 36.4666 34.425 37.6166 33.475 38.55C32.525 39.4833 31.3666 39.95 30 39.95ZM19.6 47.9C18.7666 47.9 18.0583 47.6083 17.475 47.025C16.8916 46.4416 16.6 45.7333 16.6 44.9V16.1C16.6 15.2666 16.8916 14.5583 17.475 13.975C18.0583 13.3916 18.7666 13.1 19.6 13.1H40.4C41.2333 13.1 41.9416 13.3916 42.525 13.975C43.1083 14.5583 43.4 15.2666 43.4 16.1V44.9C43.4 45.7333 43.1083 46.4416 42.525 47.025C41.9416 47.6083 41.2333 47.9 40.4 47.9H19.6ZM19.6 46.5H40.4C40.8666 46.5 41.25 46.35 41.55 46.05C41.85 45.75 42 45.3666 42 44.9V16.1C42 15.6333 41.85 15.25 41.55 14.95C41.25 14.65 40.8666 14.5 40.4 14.5H19.6C19.1333 14.5 18.75 14.65 18.45 14.95C18.15 15.25 18 15.6333 18 16.1V44.9C18 45.3666 18.15 45.75 18.45 46.05C18.75 46.35 19.1333 46.5 19.6 46.5Z" fill="white"/>
</svg>
