<svg width="112" height="12" viewBox="0 0 112 12" fill="none" xmlns="http://www.w3.org/2000/svg">
<path fill-rule="evenodd" clip-rule="evenodd" d="M41.349 0.0761719H36.5846V7.99465L36.7656 9.41127L37.2993 10.5071L38.1251 11.2885L39.1764 11.7554L40.3961 11.9205H50.9414V9.45256H42.8101L42.1876 9.31598L41.7365 8.98565L41.4538 8.52508L41.349 7.99465V0.0761719Z" fill="white"/>
<path d="M50.942 0.0761719H46.1776V9.45256H50.942V0.0761719Z" fill="white"/>
<path fill-rule="evenodd" clip-rule="evenodd" d="M64.2279 0H53.6985V11.9206H58.5233V2.53468H67.906L67.8997 2.48386L67.366 1.38486L66.5434 0.61303L65.4825 0.158814L64.2279 0Z" fill="white"/>
<path fill-rule="evenodd" clip-rule="evenodd" d="M67.9061 2.53467H61.8807L62.4874 2.6649L62.9448 2.97935L63.237 3.43673L63.3418 3.99576V11.9206H68.0967V3.92905L67.9061 2.53467Z" fill="white"/>
<path d="M93.4817 0.0761719H88.6887V11.8919H93.4817V0.0761719Z" fill="white"/>
<path fill-rule="evenodd" clip-rule="evenodd" d="M29.9942 0.0761719H19.5474V11.9205H24.2959V7.80725H33.1291L32.7321 7.23869L32.081 6.66378L32.856 6.17463L33.4277 5.50444L33.5325 5.27257H24.3594V2.54414H33.7168L33.5516 2.07723L33.018 1.30539L32.2525 0.679664L31.2456 0.250864L29.9942 0.0761719Z" fill="white"/>
<path fill-rule="evenodd" clip-rule="evenodd" d="M33.1287 7.80713H26.8905L27.4305 7.86112L27.8942 8.04535L28.2849 8.37886L28.6025 8.88388L29.9937 11.9204H34.9329L34.1896 10.1512L33.6623 8.86166L33.2177 7.931L33.1287 7.80713Z" fill="white"/>
<path fill-rule="evenodd" clip-rule="evenodd" d="M33.7166 2.54443H27.3989L28.4407 2.86841L28.9617 3.54496V4.33586L28.4407 4.99335L27.3989 5.27286H33.5323L33.7864 4.7043L33.9294 3.83082L33.8531 2.93512L33.7166 2.54443Z" fill="white"/>
<path fill-rule="evenodd" clip-rule="evenodd" d="M80.0235 0.0761719H70.8885V11.9205H79.96L81.0781 11.8538L82.0945 11.6664L83.0093 11.3742L84.5307 10.5039L85.5503 9.45256H75.6435V2.54414H85.4423L85.1437 2.17251L83.8383 1.11163L82.1294 0.381092L81.1257 0.171457L80.0235 0.0761719Z" fill="white"/>
<path fill-rule="evenodd" clip-rule="evenodd" d="M85.4425 2.54443H77.74L78.8295 2.68101L79.7347 3.0177L80.4621 3.51956L81.0052 4.14528L81.3673 4.86312L81.5484 5.63496V6.42267L81.0052 7.90282L79.7347 9.01134L78.8295 9.33215L77.74 9.45285H85.5505L86.3541 7.95682L86.659 6.46079L86.6558 5.69848L86.5574 4.93935L86.3541 4.19611L86.0523 3.48144L85.6489 2.80171L85.4425 2.54443Z" fill="white"/>
<path fill-rule="evenodd" clip-rule="evenodd" d="M15.4753 0H7.37582L6.29588 0.0603502L5.31758 0.24458L3.65639 0.943357L2.38905 1.99789L1.51875 3.31922L1.03913 4.80572L0.947021 5.58073L0.950191 6.36528L1.25194 7.9026L1.94119 9.3224L3.01478 10.5294L4.47269 11.4315L6.31176 11.9301L7.37582 12H16.6792V9.45897H9.71674L8.69397 9.35416L7.12172 8.64268L6.18153 7.45474L5.87661 6.02541L5.96237 5.29487L6.61351 3.94813L7.90626 2.95077L9.84379 2.53786H15.4753V0Z" fill="white"/>
<path d="M16.6762 5.33301H11.9944V9.459H16.6762V5.33301Z" fill="white"/>
<path fill-rule="evenodd" clip-rule="evenodd" d="M109.782 0H101.664L100.581 0.0603502L99.5959 0.24458L97.9284 0.943357L96.6547 1.99471L95.7812 3.31287L95.2984 4.79619L95.2063 5.56803L95.2095 6.3494L95.5144 7.88036L96.2037 9.29063L97.2836 10.4881L98.7479 11.3743L100.596 11.8602L101.664 11.9174H111.053V9.44627H104.074L103.049 9.34463L101.467 8.63315L100.523 7.44521L100.215 6.01906L100.304 5.29169L100.959 3.94495L102.258 2.94759L104.202 2.53468H109.782V0Z" fill="white"/>
<path d="M111.053 5.32324H106.231V9.44606H111.053V5.32324Z" fill="white"/>
</svg>
