<svg width="60" height="61" viewBox="0 0 60 61" fill="none" xmlns="http://www.w3.org/2000/svg">
    <path d="M46.7999 30.4911V27.4923C46.7999 27.3333 46.7367 27.1807 46.6242 27.0682C46.5116 26.9558 46.359 26.8926 46.1999 26.8926C46.0407 26.8926 45.8881 26.9558 45.7756 27.0682C45.663 27.1807 45.5998 27.3333 45.5998 27.4923V30.4911H44.4039V27.4923C44.3986 27.3367 44.333 27.1893 44.221 27.0811C44.109 26.9729 43.9593 26.9124 43.8035 26.9124C43.6478 26.9124 43.4981 26.9729 43.3861 27.0811C43.2741 27.1893 43.2085 27.3367 43.2031 27.4923V30.4911C42.8856 30.4924 42.5816 30.6193 42.3575 30.8441C42.1334 31.0689 42.0075 31.3732 42.0073 31.6906V32.8901C42.0082 33.581 42.2474 34.2504 42.6847 34.7855C43.1219 35.3206 43.7304 35.6887 44.4075 35.8276V38.8869C44.4067 39.3638 44.2168 39.821 43.8794 40.1583C43.542 40.4956 43.0845 40.6854 42.6073 40.6861H40.2001V14.6009C40.2004 14.3251 40.1463 14.0519 40.0409 13.7971C39.9355 13.5422 39.7808 13.3106 39.5858 13.1155C39.3908 12.9204 39.1592 12.7656 38.9043 12.66C38.6494 12.5544 38.3762 12.5 38.1003 12.5C37.8245 12.4999 37.5513 12.5541 37.2965 12.6596C37.0417 12.765 36.8101 12.9196 36.615 13.1145C36.42 13.3094 36.2652 13.5408 36.1597 13.7954C36.0541 14.0501 35.9998 14.3231 35.9998 14.5988V15.4987H34.7997V14.5988C34.7998 14.3231 34.7455 14.0502 34.64 13.7955C34.5345 13.5408 34.3799 13.3094 34.1849 13.1145C33.9899 12.9196 33.7583 12.765 33.5035 12.6596C33.2487 12.5541 32.9756 12.4999 32.6999 12.5C32.4241 12.4999 32.151 12.5541 31.8962 12.6596C31.6414 12.765 31.4099 12.9196 31.2149 13.1145C31.0199 13.3094 30.8652 13.5408 30.7597 13.7955C30.6542 14.0502 30.6 14.3231 30.6 14.5988V15.4987H29.4V14.5988C29.4 14.3231 29.3458 14.0502 29.2403 13.7955C29.1348 13.5408 28.9801 13.3094 28.7851 13.1145C28.5901 12.9196 28.3586 12.765 28.1038 12.6596C27.849 12.5541 27.5759 12.4999 27.3001 12.5C27.0243 12.4999 26.7512 12.5541 26.4964 12.6596C26.2415 12.765 26.01 12.9196 25.8149 13.1145C25.6198 13.3094 25.4651 13.5408 25.3595 13.7954C25.254 14.0501 25.1996 14.3231 25.1996 14.5988V15.4987H24.0038V14.5988C24.0038 14.323 23.9494 14.0499 23.8437 13.7951C23.7381 13.5403 23.5832 13.3089 23.388 13.114C23.1928 12.9191 22.961 12.7645 22.706 12.6592C22.451 12.5538 22.1778 12.4997 21.9018 12.5C21.626 12.4999 21.3529 12.5541 21.0981 12.6596C20.8432 12.765 20.6116 12.9196 20.4166 13.1145C20.2215 13.3094 20.0668 13.5408 19.9612 13.7954C19.8556 14.0501 19.8013 14.3231 19.8013 14.5988V15.4987H18.6012V14.5988C18.6013 14.323 18.547 14.0499 18.4414 13.7952C18.3359 13.5404 18.1811 13.3089 17.9859 13.114C17.7908 12.9191 17.5591 12.7645 17.3041 12.6592C17.0491 12.5538 16.7759 12.4997 16.5 12.5C16.2242 12.4999 15.9511 12.5541 15.6963 12.6596C15.4415 12.765 15.21 12.9196 15.015 13.1145C14.82 13.3094 14.6653 13.5408 14.5598 13.7955C14.4543 14.0502 14.4001 14.3231 14.4002 14.5988V16.6982C13.7639 16.6988 13.1538 16.9516 12.7039 17.4013C12.2539 17.8509 12.0007 18.4606 12 19.0965V20.296C12.0006 20.9321 12.2536 21.542 12.7036 21.9918C13.1536 22.4415 13.7638 22.6945 14.4002 22.695V31.0908C13.7638 31.0914 13.1536 31.3443 12.7036 31.7941C12.2536 32.2439 12.0006 32.8537 12 33.4898V37.0876C12.0006 37.7237 12.2536 38.3336 12.7036 38.7833C13.1536 39.2331 13.7638 39.4861 14.4002 39.4866V41.5854C14.4007 42.1419 14.6221 42.6755 15.0158 43.0691C15.4094 43.4627 15.9432 43.6841 16.5 43.6849C16.8122 43.6829 17.1199 43.6108 17.4004 43.4739V44.5138C16.991 44.9782 16.777 45.5827 16.8033 46.2011C16.8295 46.8194 17.0939 47.4037 17.5411 47.8318C17.9881 48.2599 18.5832 48.4989 19.2023 48.4989C19.8214 48.4989 20.4166 48.2599 20.8635 47.8318C21.3108 47.4037 21.5752 46.8194 21.6014 46.2011C21.6276 45.5827 21.4136 44.9782 21.0042 44.5138V43.4739C21.2847 43.6109 21.5925 43.683 21.9046 43.6849C22.4614 43.6839 22.995 43.4624 23.3887 43.0689C23.7823 42.6753 24.0037 42.1418 24.0045 41.5854V40.6861H25.2003V41.5854C25.2003 42.1422 25.4216 42.6762 25.8156 43.0699C26.2095 43.4637 26.7438 43.6849 27.3008 43.6849C27.5767 43.6849 27.8498 43.6305 28.1046 43.525C28.3594 43.4195 28.5909 43.2649 28.7859 43.0699C28.9809 42.8749 29.1355 42.6435 29.241 42.3888C29.3465 42.134 29.4008 41.8611 29.4007 41.5854V40.6861H30.6V41.5854C30.6006 42.1419 30.822 42.6755 31.2156 43.0691C31.6093 43.4627 32.1431 43.6841 32.6999 43.6849C33.012 43.6829 33.3198 43.6108 33.6003 43.4739V44.5138C33.2947 44.86 33.0955 45.2871 33.0267 45.7436C32.9578 46.2002 33.0223 46.6669 33.2123 47.0878C33.4024 47.5087 33.7099 47.8658 34.0979 48.1163C34.486 48.3668 34.9381 48.5 35.4001 48.5C35.862 48.5 36.3142 48.3668 36.7022 48.1163C37.0903 47.8658 37.3978 47.5087 37.5878 47.0878C37.7778 46.6669 37.8423 46.2002 37.7735 45.7436C37.7047 45.2871 37.5055 44.86 37.1999 44.5138V43.4739C37.4954 43.6183 37.821 43.6904 38.1498 43.6844C38.4787 43.6784 38.8014 43.5944 39.0914 43.4393C39.3814 43.2842 39.6304 43.0624 39.8179 42.7923C40.0054 42.5222 40.126 42.2114 40.1698 41.8856H42.6003C43.3956 41.8847 44.1582 41.5684 44.7205 41.0062C45.2828 40.444 45.5991 39.6818 45.5998 38.8869V35.8276C46.2769 35.6886 46.8852 35.3205 47.3224 34.7854C47.7597 34.2503 47.9989 33.5809 48 32.8901V31.6906C47.9996 31.3726 47.8731 31.0677 47.6481 30.8428C47.4231 30.6179 47.1181 30.4914 46.7999 30.4911ZM35.9998 43.7699C35.6079 43.656 35.1916 43.656 34.7997 43.7699V40.6861H35.9998V43.7699ZM35.9998 16.7004V39.4866H34.7997V16.6982L35.9998 16.7004ZM19.7999 43.7699C19.408 43.656 18.9917 43.656 18.5998 43.7699V40.6861H19.7999V43.7699ZM19.7999 16.7004V39.4866H18.5998V16.6982L19.7999 16.7004ZM13.2001 20.296V19.0965C13.2005 18.7785 13.327 18.4736 13.552 18.2488C13.777 18.0239 14.082 17.8974 14.4002 17.897V21.4955C14.082 21.4952 13.777 21.3687 13.552 21.1438C13.327 20.9189 13.2005 20.6141 13.2001 20.296ZM13.2001 37.0876V33.4898C13.2005 33.1718 13.327 32.8669 13.552 32.6421C13.777 32.4172 14.082 32.2907 14.4002 32.2903V38.2871C14.082 38.2867 13.777 38.1602 13.552 37.9354C13.327 37.7105 13.2005 37.4056 13.2001 37.0876ZM16.5 42.4854C16.2613 42.4852 16.0325 42.3903 15.8638 42.2215C15.6951 42.0528 15.6003 41.8239 15.6003 41.5854V14.5988C15.6003 14.3603 15.6951 14.1315 15.8638 13.9629C16.0325 13.7942 16.2614 13.6995 16.5 13.6995C16.7386 13.6997 16.9673 13.7945 17.136 13.9631C17.3047 14.1317 17.3995 14.3603 17.3997 14.5988V41.5854C17.3993 41.8238 17.3045 42.0524 17.1358 42.2211C16.9672 42.3898 16.7386 42.4848 16.5 42.4854ZM19.1999 47.2826C18.8816 47.2826 18.5763 47.1563 18.3513 46.9313C18.1262 46.7064 17.9998 46.4013 17.9998 46.0832C17.9998 45.765 18.1262 45.4599 18.3513 45.235C18.5763 45.01 18.8816 44.8837 19.1999 44.8837C19.5181 44.8837 19.8234 45.01 20.0485 45.235C20.2735 45.4599 20.4 45.765 20.4 46.0832C20.3996 46.4012 20.273 46.706 20.048 46.9309C19.8231 47.1558 19.518 47.2823 19.1999 47.2826ZM22.8001 41.5875C22.7996 41.8255 22.7048 42.0535 22.5364 42.2218C22.3681 42.39 22.1399 42.4848 21.9018 42.4854C21.663 42.4854 21.434 42.3905 21.2651 42.2218C21.0963 42.053 21.0014 41.8241 21.0014 41.5854V14.5988C21.0016 14.3602 21.0965 14.1315 21.2654 13.9628C21.4342 13.7942 21.6631 13.6995 21.9018 13.6995C22.1405 13.6995 22.3693 13.7942 22.538 13.9629C22.7068 14.1315 22.8015 14.3603 22.8015 14.5988L22.8001 41.5875ZM24.0002 39.4887V16.6982H25.1961V39.4866L24.0002 39.4887ZM28.1999 41.5875C28.1999 41.8261 28.1051 42.0549 27.9364 42.2236C27.7677 42.3924 27.5388 42.4873 27.3001 42.4875C27.0616 42.4865 26.8333 42.391 26.6652 42.2218C26.4972 42.0527 26.4032 41.8238 26.4039 41.5854V14.5988C26.4039 14.3609 26.4982 14.1327 26.6662 13.9641C26.8342 13.7956 27.0621 13.7004 27.3001 13.6995C27.5388 13.6995 27.7676 13.7942 27.9363 13.9629C28.1051 14.1315 28.1999 14.3603 28.1999 14.5988V41.5875ZM29.4 39.4887V16.6982H30.6V39.4866L29.4 39.4887ZM32.6999 42.4854C32.4612 42.4852 32.2323 42.3903 32.0636 42.2215C31.8949 42.0528 31.8001 41.8239 31.8001 41.5854V14.5988C31.8001 14.3603 31.8949 14.1315 32.0637 13.9629C32.2324 13.7942 32.4612 13.6995 32.6999 13.6995C32.9385 13.6995 33.1675 13.7942 33.3363 13.9628C33.5051 14.1315 33.6001 14.3602 33.6003 14.5988V41.5854C33.5999 41.824 33.5049 42.0527 33.3361 42.2213C33.1674 42.39 32.9386 42.485 32.6999 42.4854ZM35.4004 47.2826C35.1629 47.2835 34.9305 47.2138 34.7325 47.0826C34.5346 46.9513 34.3802 46.7642 34.2887 46.5451C34.1972 46.326 34.1728 46.0847 34.2187 45.8517C34.2645 45.6188 34.3784 45.4047 34.5461 45.2365C34.7138 45.0683 34.9276 44.9536 35.1605 44.907C35.3934 44.8604 35.6349 44.8839 35.8545 44.9746C36.074 45.0652 36.2617 45.219 36.3937 45.4163C36.5258 45.6137 36.5963 45.8457 36.5963 46.0832C36.5963 46.4006 36.4704 46.705 36.2463 46.9298C36.0221 47.1547 35.718 47.2815 35.4004 47.2826ZM39 41.5875C39.0034 41.7078 38.9826 41.8275 38.9389 41.9395C38.8951 42.0516 38.8294 42.1538 38.7455 42.2401C38.6616 42.3263 38.5612 42.3949 38.4503 42.4417C38.3394 42.4885 38.2203 42.5126 38.0999 42.5126C37.9796 42.5126 37.8604 42.4885 37.7495 42.4417C37.6387 42.3949 37.5383 42.3263 37.4544 42.2401C37.3705 42.1538 37.3047 42.0516 37.261 41.9395C37.2173 41.8275 37.1965 41.7078 37.1999 41.5875V14.5988C37.2 14.3602 37.295 14.1315 37.4638 13.9628C37.6327 13.7942 37.8616 13.6995 38.1003 13.6995C38.2184 13.6995 38.3354 13.7228 38.4446 13.768C38.5537 13.8131 38.6529 13.8794 38.7365 13.9629C38.82 14.0464 38.8863 14.1455 38.9315 14.2546C38.9767 14.3637 39 14.4807 39 14.5988V41.5875ZM46.7999 32.8901C46.7999 33.3673 46.6102 33.8249 46.2727 34.1623C45.9351 34.4998 45.4772 34.6893 44.9998 34.6893C44.5223 34.6893 44.0645 34.4998 43.7269 34.1623C43.3893 33.8249 43.1996 33.3673 43.1996 32.8901V31.6906H46.7999V32.8901Z" fill="white"/>
</svg>
