<svg width="60" height="61" viewBox="0 0 60 61" fill="none" xmlns="http://www.w3.org/2000/svg">
    <path d="M35.0435 15.5H24.9566C24.2877 15.5 23.6463 15.2366 23.1734 14.7678C22.7005 14.2989 22.4348 13.663 22.4348 13V12.375C22.4348 11.8777 22.6341 11.4008 22.9888 11.0492C23.3435 10.6975 23.8245 10.5 24.3261 10.5H35.6739C36.1756 10.5 36.6566 10.6975 37.0113 11.0492C37.366 11.4008 37.5653 11.8777 37.5653 12.375V13C37.5653 13.663 37.2996 14.2989 36.8266 14.7678C36.3537 15.2366 35.7123 15.5 35.0435 15.5ZM24.3261 11.75C24.1589 11.75 23.9986 11.8158 23.8803 11.9331C23.7621 12.0503 23.6957 12.2092 23.6957 12.375V13C23.6957 13.3315 23.8285 13.6495 24.065 13.8839C24.3014 14.1183 24.6222 14.25 24.9566 14.25H35.0435C35.3779 14.25 35.6986 14.1183 35.9351 13.8839C36.1715 13.6495 36.3044 13.3315 36.3044 13V12.375C36.3044 12.2092 36.238 12.0503 36.1197 11.9331C36.0015 11.8158 35.8411 11.75 35.6739 11.75H24.3261Z" fill="white"/>
    <path d="M32.1876 46.6875C32.1048 46.69 32.0223 46.6762 31.9449 46.6471C31.8675 46.618 31.7966 46.574 31.7363 46.5177C31.676 46.4614 31.6275 46.3939 31.5935 46.319C31.5595 46.2441 31.5407 46.1633 31.5382 46.0812C31.5358 45.9992 31.5496 45.9174 31.579 45.8406C31.6084 45.7639 31.6527 45.6936 31.7095 45.6338C31.7663 45.574 31.8344 45.5259 31.91 45.4923C31.9855 45.4586 32.067 45.44 32.1498 45.4375C34.8675 45.2967 37.5633 44.8778 40.1941 44.1875C40.5744 44.0684 40.915 43.8491 41.1792 43.5529C41.4435 43.2568 41.6216 42.895 41.6946 42.5062C42.2935 39.425 43.2391 33.3062 43.2391 29.875C43.2391 17.0688 38.3091 11.75 35.6739 11.75C35.5067 11.75 35.3463 11.6842 35.2281 11.5669C35.1099 11.4497 35.0435 11.2908 35.0435 11.125C35.0435 10.9592 35.1099 10.8003 35.2281 10.6831C35.3463 10.5658 35.5067 10.5 35.6739 10.5C39.3367 10.5 44.5 16.5125 44.5 29.875C44.5 33.8375 43.3715 40.5 42.9365 42.7125C42.8173 43.3265 42.532 43.8967 42.1111 44.3624C41.6903 44.8281 41.1497 45.1716 40.5472 45.3563C37.8248 46.0834 35.034 46.5295 32.2191 46.6875H32.1876Z" fill="white"/>
    <path d="M27.8754 46.6937H27.8376C25.0091 46.5428 22.2047 46.0945 19.4717 45.3563C18.868 45.1725 18.3261 44.8294 17.9041 44.3637C17.4821 43.898 17.1959 43.3272 17.0761 42.7125C16.4646 39.65 15.5 33.45 15.5 29.875C15.5 16.5125 20.6633 10.5 24.3261 10.5C24.4933 10.5 24.6536 10.5658 24.7719 10.6831C24.8901 10.8003 24.9565 10.9592 24.9565 11.125C24.9565 11.2908 24.8901 11.4497 24.7719 11.5669C24.6536 11.6842 24.4933 11.75 24.3261 11.75C21.6909 11.75 16.7609 17.0688 16.7609 29.875C16.7609 33.3625 17.7128 39.45 18.3117 42.4688C18.3865 42.8603 18.5674 43.2243 18.8351 43.5216C19.1028 43.8189 19.4471 44.0383 19.8311 44.1562C22.4692 44.8688 25.1765 45.3004 27.907 45.4437C28.0742 45.4479 28.2329 45.5177 28.3481 45.6379C28.4634 45.758 28.5258 45.9186 28.5216 46.0844C28.5175 46.2501 28.447 46.4075 28.3258 46.5217C28.2046 46.636 28.0426 46.6979 27.8754 46.6937Z" fill="white"/>
    <path d="M30 28C28.8778 28 27.7808 27.6701 26.8477 27.052C25.9146 26.4339 25.1874 25.5554 24.758 24.5276C24.3285 23.4998 24.2161 22.3688 24.4351 21.2776C24.654 20.1865 25.1944 19.1842 25.9879 18.3975C26.7814 17.6109 27.7924 17.0751 28.893 16.8581C29.9937 16.641 31.1345 16.7524 32.1713 17.1782C33.208 17.6039 34.0942 18.3249 34.7177 19.2499C35.3411 20.1749 35.6739 21.2625 35.6739 22.375C35.6739 23.8668 35.0761 25.2976 34.012 26.3525C32.948 27.4074 31.5048 28 30 28ZM30 18C29.1271 18 28.2739 18.2566 27.5482 18.7373C26.8225 19.2181 26.2569 19.9013 25.9228 20.7008C25.5888 21.5002 25.5014 22.3799 25.6717 23.2285C25.842 24.0772 26.2623 24.8567 26.8795 25.4686C27.4966 26.0804 28.283 26.4971 29.139 26.6659C29.9951 26.8347 30.8824 26.7481 31.6888 26.417C32.4951 26.0858 33.1844 25.5251 33.6693 24.8056C34.1542 24.0862 34.413 23.2403 34.413 22.375C34.413 21.2147 33.9481 20.1019 33.1205 19.2814C32.2929 18.4609 31.1704 18 30 18Z" fill="white"/>
    <path d="M29.9999 23C29.6259 23 29.2602 22.89 28.9492 22.684C28.6382 22.478 28.3958 22.1851 28.2526 21.8425C28.1095 21.4999 28.072 21.1229 28.145 20.7592C28.218 20.3955 28.3981 20.0614 28.6626 19.7992C28.9271 19.537 29.2641 19.3584 29.631 19.286C29.9978 19.2137 30.3781 19.2508 30.7237 19.3927C31.0693 19.5346 31.3647 19.775 31.5725 20.0833C31.7803 20.3916 31.8913 20.7542 31.8913 21.125C31.8913 21.6223 31.692 22.0992 31.3373 22.4508C30.9826 22.8025 30.5016 23 29.9999 23ZM29.9999 20.5C29.8753 20.5 29.7534 20.5367 29.6497 20.6053C29.546 20.674 29.4652 20.7716 29.4175 20.8858C29.3698 21 29.3573 21.1257 29.3816 21.2469C29.406 21.3682 29.466 21.4795 29.5542 21.5669C29.6423 21.6544 29.7547 21.7139 29.877 21.738C29.9992 21.7621 30.126 21.7497 30.2412 21.7024C30.3564 21.6551 30.4549 21.575 30.5241 21.4722C30.5934 21.3695 30.6304 21.2486 30.6304 21.125C30.6304 20.9592 30.564 20.8003 30.4457 20.6831C30.3275 20.5658 30.1671 20.5 29.9999 20.5Z" fill="white"/>
    <path d="M33.1522 30.5H26.8478C26.6806 30.5 26.5203 30.4342 26.4021 30.3169C26.2838 30.1997 26.2174 30.0408 26.2174 29.875C26.2174 29.7092 26.2838 29.5503 26.4021 29.4331C26.5203 29.3158 26.6806 29.25 26.8478 29.25H33.1522C33.3194 29.25 33.4797 29.3158 33.598 29.4331C33.7162 29.5503 33.7826 29.7092 33.7826 29.875C33.7826 30.0408 33.7162 30.1997 33.598 30.3169C33.4797 30.4342 33.3194 30.5 33.1522 30.5Z" fill="white"/>
    <path d="M33.1522 41.7501H31.8914C31.7242 41.7501 31.5638 41.6843 31.4456 41.5671C31.3273 41.4499 31.2609 41.2909 31.2609 41.1251C31.2609 40.9594 31.3273 40.8004 31.4456 40.6832C31.5638 40.566 31.7242 40.5001 31.8914 40.5001H33.1522C33.3194 40.5001 33.4798 40.4343 33.598 40.3171C33.7162 40.1999 33.7827 40.0409 33.7827 39.8751V36.7501C33.7819 36.5946 33.8396 36.4445 33.9445 36.3289C34.0494 36.2133 34.194 36.1407 34.3501 36.1251C36.2897 35.9221 38.2087 35.5583 40.087 35.0376V33.1626C36.7703 33.8617 33.3908 34.2261 30.0001 34.2501C26.6091 34.224 23.2295 33.8576 19.9131 33.1564V35.0314C21.7882 35.5668 23.7084 35.9329 25.6501 36.1251C25.8061 36.1407 25.9507 36.2133 26.0556 36.3289C26.1605 36.4445 26.2182 36.5946 26.2174 36.7501V39.8751C26.2174 40.0409 26.2839 40.1999 26.4021 40.3171C26.5203 40.4343 26.6807 40.5001 26.8479 40.5001H28.1087C28.2759 40.5001 28.4363 40.566 28.5545 40.6832C28.6728 40.8004 28.7392 40.9594 28.7392 41.1251C28.7392 41.2909 28.6728 41.4499 28.5545 41.5671C28.4363 41.6843 28.2759 41.7501 28.1087 41.7501H26.8479C26.3463 41.7501 25.8652 41.5526 25.5105 41.2009C25.1558 40.8493 24.9566 40.3724 24.9566 39.8751V37.3126C22.9646 37.1016 20.9972 36.704 19.0809 36.1251C18.9504 36.0816 18.8379 35.997 18.7605 35.8841C18.6831 35.7713 18.645 35.6364 18.6522 35.5001V32.3751C18.6522 32.2094 18.7186 32.0504 18.8369 31.9332C18.9551 31.816 19.1155 31.7501 19.2827 31.7501C19.3329 31.7441 19.3837 31.7441 19.434 31.7501C22.9002 32.5437 26.4428 32.9628 30.0001 33.0001C33.5573 32.9628 37.1 32.5437 40.5661 31.7501C40.7283 31.7105 40.8997 31.7362 41.0428 31.8218C41.1858 31.9073 41.2887 32.0456 41.329 32.2064C41.343 32.2615 41.3493 32.3183 41.3479 32.3751V35.5001C41.3546 35.6372 41.3157 35.7727 41.2371 35.8856C41.1585 35.9986 41.0445 36.0827 40.9129 36.1251C38.9963 36.6931 37.0318 37.0884 35.0435 37.3064V39.8751C35.0435 40.3724 34.8443 40.8493 34.4896 41.2009C34.1349 41.5526 33.6538 41.7501 33.1522 41.7501Z" fill="white"/>
    <path d="M30 50.5C29.3312 50.5 28.6898 50.2366 28.2169 49.7678C27.744 49.2989 27.4783 48.663 27.4783 48V37.375C27.4783 37.2092 27.5447 37.0503 27.6629 36.9331C27.7812 36.8158 27.9415 36.75 28.1087 36.75H31.8913C32.0585 36.75 32.2189 36.8158 32.3371 36.9331C32.4553 37.0503 32.5217 37.2092 32.5217 37.375V48C32.5217 48.663 32.2561 49.2989 31.7831 49.7678C31.3102 50.2366 30.6688 50.5 30 50.5ZM28.7391 38V48C28.7391 48.3315 28.872 48.6495 29.1084 48.8839C29.3449 49.1183 29.6656 49.25 30 49.25C30.3344 49.25 30.6551 49.1183 30.8916 48.8839C31.128 48.6495 31.2609 48.3315 31.2609 48V38H28.7391Z" fill="white"/>
    <path d="M31.8913 24.875C31.7241 24.875 31.5637 24.8092 31.4455 24.6919C31.3273 24.5747 31.2609 24.4158 31.2609 24.25C31.2609 24.0842 31.3273 23.9253 31.4455 23.8081C31.5637 23.6908 31.7241 23.625 31.8913 23.625C32.0585 23.625 32.2189 23.6908 32.3371 23.8081C32.4553 23.9253 32.5217 24.0842 32.5217 24.25C32.5217 24.4158 32.4553 24.5747 32.3371 24.6919C32.2189 24.8092 32.0585 24.875 31.8913 24.875Z" fill="white"/>
    <path d="M28.1087 24.875C27.9415 24.875 27.7812 24.8092 27.6629 24.6919C27.5447 24.5747 27.4783 24.4158 27.4783 24.25C27.4783 24.0842 27.5447 23.9253 27.6629 23.8081C27.7812 23.6908 27.9415 23.625 28.1087 23.625C28.2759 23.625 28.4363 23.6908 28.5545 23.8081C28.6727 23.9253 28.7391 24.0842 28.7391 24.25C28.7391 24.4158 28.6727 24.5747 28.5545 24.6919C28.4363 24.8092 28.2759 24.875 28.1087 24.875Z" fill="white"/>
</svg>
