<svg version="1.1" xmlns="http://www.w3.org/2000/svg" xmlns:xlink="http://www.w3.org/1999/xlink">

    <symbol viewBox="0 0 61 60" id="land-april25-icon-play">
        <path d="M25.6667 38.9423L39.6091 30L25.6667 21.0577V38.9423ZM30.6751 52.5C27.5637 52.5 24.6385 51.9096 21.8995 50.7288C19.1605 49.548 16.7779 47.9454 14.7517 45.9212C12.7256 43.8969 11.1215 41.5166 9.93962 38.7801C8.75771 36.0436 8.16675 33.1197 8.16675 30.0084C8.16675 26.897 8.75714 23.9718 9.93794 21.2327C11.1188 18.4937 12.7213 16.1111 14.7456 14.0849C16.7698 12.0588 19.1502 10.4548 21.8866 9.27288C24.6231 8.09096 27.547 7.5 30.6584 7.5C33.7697 7.5 36.695 8.0904 39.434 9.27119C42.173 10.452 44.5556 12.0546 46.5818 14.0788C48.6079 16.1031 50.212 18.4834 51.3939 21.2199C52.5758 23.9564 53.1667 26.8803 53.1667 29.9916C53.1667 33.103 52.5764 36.0282 51.3956 38.7673C50.2147 41.5063 48.6122 43.8889 46.5879 45.9151C44.5637 47.9412 42.1833 49.5452 39.4469 50.7271C36.7104 51.909 33.7865 52.5 30.6751 52.5ZM30.6667 50C36.2501 50 40.9792 48.0625 44.8542 44.1875C48.7292 40.3125 50.6667 35.5833 50.6667 30C50.6667 24.4167 48.7292 19.6875 44.8542 15.8125C40.9792 11.9375 36.2501 10 30.6667 10C25.0834 10 20.3542 11.9375 16.4792 15.8125C12.6042 19.6875 10.6667 24.4167 10.6667 30C10.6667 35.5833 12.6042 40.3125 16.4792 44.1875C20.3542 48.0625 25.0834 50 30.6667 50Z" />
    </symbol>

    <symbol viewBox="0 0 24 24" id="land-april25-icon-info">
        <path d="M11.25 16.75H12.75V11H11.25V16.75ZM12 9.2885C12.2288 9.2885 12.4207 9.21108 12.5755 9.05625C12.7303 8.90142 12.8077 8.70958 12.8077 8.48075C12.8077 8.25192 12.7303 8.06008 12.5755 7.90525C12.4207 7.75058 12.2288 7.67325 12 7.67325C11.7712 7.67325 11.5793 7.75058 11.4245 7.90525C11.2697 8.06008 11.1923 8.25192 11.1923 8.48075C11.1923 8.70958 11.2697 8.90142 11.4245 9.05625C11.5793 9.21108 11.7712 9.2885 12 9.2885ZM12.0017 21.5C10.6877 21.5 9.45267 21.2507 8.2965 20.752C7.14033 20.2533 6.13467 19.5766 5.2795 18.7218C4.42433 17.8669 3.74725 16.8617 3.24825 15.706C2.74942 14.5503 2.5 13.3156 2.5 12.0017C2.5 10.6877 2.74933 9.45267 3.248 8.2965C3.74667 7.14033 4.42342 6.13467 5.27825 5.2795C6.13308 4.42433 7.13833 3.74725 8.294 3.24825C9.44967 2.74942 10.6844 2.5 11.9983 2.5C13.3123 2.5 14.5473 2.74933 15.7035 3.248C16.8597 3.74667 17.8653 4.42342 18.7205 5.27825C19.5757 6.13308 20.2528 7.13833 20.7518 8.294C21.2506 9.44967 21.5 10.6844 21.5 11.9983C21.5 13.3123 21.2507 14.5473 20.752 15.7035C20.2533 16.8597 19.5766 17.8653 18.7218 18.7205C17.8669 19.5757 16.8617 20.2528 15.706 20.7518C14.5503 21.2506 13.3156 21.5 12.0017 21.5ZM12 20C14.2333 20 16.125 19.225 17.675 17.675C19.225 16.125 20 14.2333 20 12C20 9.76667 19.225 7.875 17.675 6.325C16.125 4.775 14.2333 4 12 4C9.76667 4 7.875 4.775 6.325 6.325C4.775 7.875 4 9.76667 4 12C4 14.2333 4.775 16.125 6.325 17.675C7.875 19.225 9.76667 20 12 20Z" />
    </symbol>

    <symbol viewBox="0 0 22 22" id="land-april25-icon-tg">
        <path d="M14.9647 6.25464L4.80694 10.1717C4.11371 10.4501 4.11772 10.8368 4.67975 11.0093L7.28766 11.8228L13.3216 8.01578C13.6069 7.84219 13.8676 7.93558 13.6533 8.12578L8.76465 12.5378H8.7635L8.76465 12.5384L8.58475 15.2265C8.84829 15.2265 8.96459 15.1056 9.1124 14.963L10.3791 13.7312L13.0139 15.6774C13.4998 15.9449 13.8487 15.8074 13.9696 15.2277L15.6993 7.0762C15.8763 6.36636 15.4282 6.04495 14.9647 6.25464Z" />
    </symbol>

    <symbol viewBox="0 0 22 22" id="land-april25-icon-vk">
        <path d="M17.15 8.081C17.2401 7.78186 17.15 7.5625 16.7241 7.5625H15.3134C14.9544 7.5625 14.7904 7.75227 14.7003 7.9607C14.7003 7.9607 13.9831 9.70982 12.9667 10.8439C12.6386 11.174 12.4887 11.2782 12.3098 11.2782C12.2204 11.2782 12.0905 11.174 12.0905 10.8748V8.081C12.0905 7.72204 11.9869 7.5625 11.6878 7.5625H9.47099C9.24712 7.5625 9.11203 7.72847 9.11203 7.88672C9.11203 8.22638 9.62023 8.30486 9.67234 9.26209V11.3386C9.67234 11.7935 9.59064 11.8764 9.41052 11.8764C8.93255 11.8764 7.76948 10.1209 7.07922 8.11123C6.94477 7.72075 6.80904 7.56314 6.44879 7.56314H5.03869C4.63534 7.56314 4.55493 7.75292 4.55493 7.96134C4.55493 8.33574 5.0329 10.1884 6.78137 12.6387C7.94702 14.3119 9.58807 15.219 11.0831 15.219C11.9792 15.219 12.0898 15.0176 12.0898 14.6702V13.4055C12.0898 13.0028 12.1754 12.9218 12.4591 12.9218C12.6675 12.9218 13.0265 13.0273 13.8634 13.8333C14.8193 14.7893 14.9776 15.2183 15.5147 15.2183H16.9248C17.3275 15.2183 17.5289 15.017 17.4131 14.6194C17.2864 14.2238 16.8296 13.6481 16.2237 12.9668C15.8943 12.5783 15.4022 12.1601 15.2523 11.9511C15.0432 11.6815 15.1037 11.5625 15.2523 11.3232C15.2529 11.3238 16.9712 8.90377 17.15 8.081Z" />
    </symbol>

    <symbol viewBox="0 0 22 22" id="land-april25-icon-ok">
        <path d="M10.915 11.2033C12.6354 11.2033 14.0379 9.80083 14.0379 8.08044C14.0379 6.36003 12.6354 4.95752 10.915 4.95752C9.17588 4.95752 7.77338 6.36003 7.77338 8.08044C7.77338 9.80083 9.17588 11.2033 10.915 11.2033ZM10.915 6.79013C11.6256 6.79013 12.2053 7.36983 12.2053 8.08044C12.2053 8.79105 11.6256 9.37071 10.915 9.37071C10.2044 9.37071 9.62469 8.79105 9.62469 8.08044C9.60596 7.36983 10.1857 6.79013 10.915 6.79013Z" />
        <path d="M12.1682 13.7657C12.8039 13.6161 13.4211 13.373 13.9821 13.0178C14.4121 12.7559 14.5431 12.1763 14.2626 11.7461C14.0008 11.316 13.4211 11.1851 12.9909 11.4656C11.7193 12.2697 10.0551 12.2697 8.78345 11.4656C8.35335 11.2038 7.79235 11.316 7.51184 11.7461C7.26874 12.1763 7.39964 12.7373 7.82975 12.999C8.39075 13.3544 9.00785 13.5974 9.64367 13.747L7.90455 15.4861C7.54924 15.8415 7.54924 16.4211 7.90455 16.7765C8.09154 16.9635 8.31595 17.0382 8.55905 17.0382C8.80215 17.0382 9.02655 16.9448 9.21356 16.7765L10.9339 15.056L12.6544 16.7765C13.0096 17.1317 13.5894 17.1317 13.9447 16.7765C14.2999 16.4211 14.2999 15.8415 13.9447 15.4861L12.1682 13.7657Z" />
    </symbol>

    <symbol viewBox="0 0 22 22" id="land-april25-icon-youtube">
        <path d="M9.40194 12.9801V9.05548L13.3324 11.0119L9.40194 12.9801V12.9801ZM14.6171 6.68654C12.8492 6.56868 8.90099 6.56868 7.13314 6.68654C5.22385 6.82207 4.99409 7.97708 4.9823 11.0178C4.99409 14.0526 5.21796 15.2135 7.13314 15.349C8.90099 15.4669 12.8492 15.4669 14.6171 15.349C16.5264 15.2194 16.7562 14.0585 16.768 11.0178C16.7562 7.98297 16.5323 6.82207 14.6171 6.68654Z" />
    </symbol>

    <symbol viewBox="0 0 22 22" id="land-april25-icon-dzen">
        <path d="M18.5937 11.2083V11.0476C15.2723 10.9404 13.7563 10.8601 12.5402 9.6815C11.3616 8.46543 11.2759 6.94936 11.1741 3.62793H11.0134C10.9062 6.94936 10.8259 8.46543 9.64732 9.6815C8.43125 10.8601 6.91518 10.9458 3.59375 11.0476V11.2083C6.91518 11.3154 8.43125 11.3958 9.64732 12.5744C10.8259 13.7904 10.9116 15.3065 11.0134 18.6279H11.1741C11.2812 15.3065 11.3616 13.7904 12.5402 12.5744C13.7563 11.3958 15.2723 11.3101 18.5937 11.2083Z" />
    </symbol>

    <symbol viewBox="0 0 22 22" id="land-april25-icon-rutube">
        <path d="M11.3221 12.0468H6.88262V10.3528H11.3221C11.5814 10.3528 11.7617 10.3964 11.8522 10.4725C11.9427 10.5486 11.9987 10.6898 11.9987 10.896V11.5042C11.9987 11.7215 11.9427 11.8627 11.8522 11.9388C11.7617 12.0149 11.5814 12.0474 11.3221 12.0474V12.0468ZM11.6266 8.75576H4.99988V16H6.88262V13.6431H10.3523L11.9987 16H14.107L12.2918 13.6321C12.961 13.5365 13.2615 13.3387 13.5094 13.0128C13.7572 12.6869 13.8815 12.1658 13.8815 11.4704V10.9272C13.8815 10.5148 13.8362 10.1889 13.7572 9.93906C13.6782 9.68926 13.5431 9.47198 13.3514 9.27683C13.1488 9.09207 12.9232 8.96197 12.6524 8.8748C12.3816 8.79868 12.0433 8.7551 11.6266 8.7551V8.75576Z" />
        <path d="M15.5534 8.7551C16.3523 8.7551 16.9999 8.13835 16.9999 7.37755C16.9999 6.61675 16.3523 6 15.5534 6C14.7546 6 14.107 6.61675 14.107 7.37755C14.107 8.13835 14.7546 8.7551 15.5534 8.7551Z" />
    </symbol>

    <symbol viewBox="0 0 24 25" id="land-april25-swiper-prev">
        <path d="M14 18.5L8 12.5L14 6.5L15.4 7.9L10.8 12.5L15.4 17.1L14 18.5Z" />
    </symbol>

    <symbol viewBox="0 0 24 25" id="land-april25-swiper-next">
        <path d="M10 6.5L16 12.5L10 18.5L8.6 17.1L13.2 12.5L8.6 7.9L10 6.5Z" />
    </symbol>

</svg>